<svg width="60" height="60" viewBox="0 0 60 60" fill="none" xmlns="http://www.w3.org/2000/svg">
<path d="M39.3754 15C39.3754 17.4864 38.3877 19.871 36.6296 21.6291C34.8714 23.3873 32.4868 24.375 30.0004 24.375C27.514 24.375 25.1295 23.3873 23.3713 21.6291C21.6132 19.871 20.6254 17.4864 20.6254 15C20.6254 12.5136 21.6132 10.129 23.3713 8.37087C25.1295 6.61272 27.514 5.625 30.0004 5.625C32.4868 5.625 34.8714 6.61272 36.6296 8.37087C38.3877 10.129 39.3754 12.5136 39.3754 15ZM11.2529 50.295C11.3333 45.3759 13.3438 40.6854 16.8509 37.2351C20.358 33.7848 25.0806 31.8512 30.0004 31.8512C34.9202 31.8512 39.6429 33.7848 43.15 37.2351C46.6571 40.6854 48.6676 45.3759 48.7479 50.295C42.8664 52.9919 36.4708 54.3838 30.0004 54.375C23.3104 54.375 16.9604 52.915 11.2529 50.295Z" stroke="#389BDA" stroke-width="3" stroke-linecap="round" stroke-linejoin="round"/>
</svg>
