<svg width="61" height="60" viewBox="0 0 61 60" fill="none" xmlns="http://www.w3.org/2000/svg">
<path d="M24.4853 9.85C24.7103 8.495 25.8853 7.5 27.2603 7.5H33.7428C35.1178 7.5 36.2928 8.495 36.5178 9.85L37.0503 13.0525C37.2078 13.9875 37.8328 14.7675 38.6628 15.2275C38.8478 15.3275 39.0303 15.435 39.2128 15.545C40.0253 16.035 41.0128 16.1875 41.9003 15.855L44.9428 14.715C45.5663 14.4805 46.2527 14.4749 46.88 14.6993C47.5072 14.9236 48.0344 15.3633 48.3678 15.94L51.6078 21.5575C51.9404 22.1343 52.0577 22.8103 51.9386 23.4654C51.8196 24.1205 51.472 24.7121 50.9578 25.135L48.4503 27.2025C47.7178 27.805 47.3553 28.735 47.3753 29.6825C47.3788 29.895 47.3788 30.1075 47.3753 30.32C47.3553 31.265 47.7178 32.195 48.4503 32.7975L50.9603 34.865C52.0203 35.74 52.2953 37.2525 51.6103 38.44L48.3653 44.0575C48.0324 44.6341 47.5057 45.0739 46.8791 45.2987C46.2524 45.5234 45.5662 45.5186 44.9428 45.285L41.9003 44.145C41.0128 43.8125 40.0253 43.965 39.2103 44.455C39.0291 44.5653 38.8457 44.6719 38.6603 44.775C37.8328 45.2325 37.2078 46.0125 37.0503 46.9475L36.5178 50.15C36.2928 51.5075 35.1178 52.5 33.7428 52.5H27.2578C25.8828 52.5 24.7103 51.505 24.4828 50.15L23.9503 46.9475C23.7953 46.0125 23.1703 45.2325 22.3403 44.7725C22.1549 44.6702 21.9715 44.5644 21.7903 44.455C20.9778 43.965 19.9903 43.8125 19.1003 44.145L16.0578 45.285C15.4346 45.5188 14.7487 45.524 14.122 45.2997C13.4954 45.0754 12.9685 44.6362 12.6353 44.06L9.39277 38.4425C9.06013 37.8657 8.94289 37.1897 9.06191 36.5346C9.18093 35.8795 9.5285 35.2879 10.0428 34.865L12.5528 32.7975C13.2828 32.1975 13.6453 31.265 13.6278 30.32C13.6239 30.1075 13.6239 29.895 13.6278 29.6825C13.6453 28.7325 13.2828 27.805 12.5528 27.2025L10.0428 25.135C9.52912 24.7122 9.18196 24.1211 9.06295 23.4666C8.94395 22.812 9.06081 22.1365 9.39277 21.56L12.6353 15.9425C12.9682 15.3653 13.4953 14.9251 14.1226 14.7003C14.7498 14.4755 15.4365 14.4807 16.0603 14.715L19.1003 15.855C19.9903 16.1875 20.9778 16.035 21.7903 15.545C21.9703 15.435 22.1553 15.33 22.3403 15.225C23.1703 14.7675 23.7953 13.9875 23.9503 13.0525L24.4853 9.85Z" stroke="#328CC4" stroke-width="3" stroke-linecap="round" stroke-linejoin="round"/>
<path d="M38 30C38 31.9891 37.2098 33.8968 35.8033 35.3033C34.3968 36.7098 32.4891 37.5 30.5 37.5C28.5109 37.5 26.6032 36.7098 25.1967 35.3033C23.7902 33.8968 23 31.9891 23 30C23 28.0109 23.7902 26.1032 25.1967 24.6967C26.6032 23.2902 28.5109 22.5 30.5 22.5C32.4891 22.5 34.3968 23.2902 35.8033 24.6967C37.2098 26.1032 38 28.0109 38 30Z" stroke="#328CC4" stroke-width="3" stroke-linecap="round" stroke-linejoin="round"/>
</svg>
