<svg width="175" height="300" viewBox="0 0 175 300" fill="none" xmlns="http://www.w3.org/2000/svg">
<rect x="10" width="30" height="300" rx="15" fill="#FDE064"/>
<rect x="-91.6726" y="54.5405" width="30" height="300" rx="15" transform="rotate(-45 -91.6726 54.5405)" fill="#FDE064"/>
<rect x="-70.4595" y="266.673" width="30" height="300" rx="15" transform="rotate(-135 -70.4595 266.673)" fill="#FDE064"/>
<rect x="175" y="135" width="30" height="300" rx="15" transform="rotate(90 175 135)" fill="#FDE064"/>
<circle cx="25" cy="150" r="100" fill="#FFE177"/>
<path d="M25 50C80.2285 50 125 94.7715 125 150C125 177.565 113.846 202.525 95.8066 220.613C88.787 222.175 81.4899 223 74 223C18.7715 223 -26 178.228 -26 123C-26 95.4349 -14.8473 70.4745 3.19238 52.3857C10.2123 50.8244 17.5099 50 25 50Z" fill="#FFEBA7"/>
<circle cx="55" cy="129" r="30" fill="#FDE064"/>
<circle cx="-4" cy="181" r="15" fill="#FDE064"/>
</svg>
