<svg width="220" height="220" viewBox="0 0 220 220" fill="none" xmlns="http://www.w3.org/2000/svg">
<path d="M110 0C119.183 0 127.207 4.95198 131.554 12.3301C143.196 14.8877 154.079 19.4727 163.812 25.6982C172.105 23.5499 181.286 25.7218 187.782 32.2178C194.278 38.7136 196.449 47.8944 194.301 56.1875C200.526 65.9202 205.111 76.8028 207.669 88.4453C215.048 92.7916 220 100.817 220 110C220 119.183 215.047 127.207 207.669 131.554C205.111 143.196 200.526 154.079 194.301 163.812C196.449 172.105 194.277 181.286 187.781 187.782C181.285 194.278 172.105 196.449 163.812 194.301C154.079 200.526 143.196 205.111 131.554 207.669C127.207 215.047 119.183 220 110 220C100.817 220 92.7916 215.048 88.4453 207.669C76.8028 205.111 65.9202 200.526 56.1875 194.301C47.8946 196.449 38.7145 194.278 32.2188 187.782C25.7228 181.286 23.5499 172.105 25.6982 163.812C19.4727 154.079 14.8877 143.196 12.3301 131.554C4.95198 127.207 0 119.183 0 110C0 100.817 4.95175 92.7917 12.3301 88.4453C14.8878 76.8029 19.4727 65.9201 25.6982 56.1875C23.5504 47.8947 25.7224 38.7144 32.2178 32.2188C38.7135 25.723 47.8945 23.5503 56.1875 25.6982C65.9201 19.4727 76.8029 14.8878 88.4453 12.3301C92.7917 4.95175 100.817 0 110 0Z" fill="#00E475"/>
<path d="M136.637 13.5894C146.37 16.2723 155.509 20.3873 163.812 25.6978C172.105 23.5495 181.286 25.7215 187.782 32.2173C194.278 38.713 196.449 47.894 194.301 56.187C200.526 65.9196 205.111 76.8024 207.669 88.4448C215.048 92.791 220 100.816 220 110C220 119.182 215.047 127.207 207.669 131.553C205.111 143.196 200.526 154.078 194.301 163.811C196.449 172.104 194.277 181.286 187.781 187.782C181.285 194.277 172.105 196.449 163.812 194.3C162.677 195.026 161.526 195.728 160.361 196.409C150.628 193.726 141.489 189.611 133.188 184.3C124.895 186.448 115.714 184.277 109.219 177.782C102.723 171.286 100.55 162.104 102.698 153.811C96.4728 144.078 91.8877 133.196 89.3301 121.553C81.9521 117.207 77 109.182 77 99.9995C77.0001 90.8167 81.9518 82.7911 89.3301 78.4448C91.8878 66.8025 96.4727 55.9196 102.698 46.187C100.551 37.8943 102.723 28.7139 109.218 22.2183C115.713 15.7227 124.895 13.5499 133.188 15.6978C134.322 14.9723 135.472 14.2697 136.637 13.5894Z" fill="#48FFA6"/>
<circle cx="88" cy="128" r="30" transform="rotate(180 88 128)" fill="#00D76E"/>
<circle cx="147" cy="76" r="15" transform="rotate(180 147 76)" fill="#00D76E"/>
</svg>
