<svg width="60" height="60" viewBox="0 0 60 60" fill="none" xmlns="http://www.w3.org/2000/svg">
<path d="M25.4625 19.0988C25.1821 18.8992 24.8522 18.7806 24.509 18.756C24.1657 18.7314 23.8222 18.8018 23.5163 18.9594C23.2103 19.117 22.9537 19.3558 22.7744 19.6496C22.5951 19.9434 22.5002 20.2809 22.5 20.6251V39.3751C22.5002 39.7192 22.5951 40.0567 22.7744 40.3505C22.9537 40.6443 23.2103 40.8831 23.5163 41.0407C23.8222 41.1983 24.1657 41.2687 24.509 41.2441C24.8522 41.2195 25.1821 41.1009 25.4625 40.9013L38.5875 31.5263C38.8306 31.3529 39.0287 31.1239 39.1654 30.8584C39.3021 30.5929 39.3734 30.2987 39.3734 30.0001C39.3734 29.7015 39.3021 29.4072 39.1654 29.1417C39.0287 28.8762 38.8306 28.6473 38.5875 28.4738L25.4625 19.0988Z" fill="#1A2E46"/>
<path d="M0 15C0 13.0109 0.790176 11.1032 2.1967 9.6967C3.60322 8.29018 5.51088 7.5 7.5 7.5H52.5C54.4891 7.5 56.3968 8.29018 57.8033 9.6967C59.2098 11.1032 60 13.0109 60 15V45C60 46.9891 59.2098 48.8968 57.8033 50.3033C56.3968 51.7098 54.4891 52.5 52.5 52.5H7.5C5.51088 52.5 3.60322 51.7098 2.1967 50.3033C0.790176 48.8968 0 46.9891 0 45V15ZM56.25 15C56.25 14.0054 55.8549 13.0516 55.1516 12.3483C54.4484 11.6451 53.4946 11.25 52.5 11.25H7.5C6.50544 11.25 5.55161 11.6451 4.84835 12.3483C4.14509 13.0516 3.75 14.0054 3.75 15V45C3.75 45.9946 4.14509 46.9484 4.84835 47.6516C5.55161 48.3549 6.50544 48.75 7.5 48.75H52.5C53.4946 48.75 54.4484 48.3549 55.1516 47.6516C55.8549 46.9484 56.25 45.9946 56.25 45V15Z" fill="#1A2E46"/>
</svg>
