<svg width="60" height="60" viewBox="0 0 60 60" fill="none" xmlns="http://www.w3.org/2000/svg">
<path d="M30.0003 15C31.3675 15 32.6566 14.8047 33.8675 14.4141C35.0784 14.0234 36.2894 13.5938 37.5003 13.125C38.7113 12.6562 39.9124 12.2266 41.1038 11.8359C42.2952 11.4453 43.5941 11.25 45.0003 11.25V15C44.1409 15 43.3206 15.0879 42.5394 15.2637C41.7581 15.4395 40.9964 15.6738 40.2542 15.9668C39.512 16.2598 38.7503 16.5625 37.9691 16.875C37.1878 17.1875 36.3968 17.4902 35.596 17.7832C34.7952 18.0762 33.9261 18.3008 32.9886 18.457C32.0511 18.6133 31.055 18.7109 30.0003 18.75C28.9261 18.75 27.93 18.6621 27.012 18.4863C26.0941 18.3105 25.2249 18.0762 24.4046 17.7832C23.5843 17.4902 22.803 17.1875 22.0609 16.875C21.3187 16.5625 20.557 16.2598 19.7757 15.9668C18.9945 15.6738 18.223 15.4492 17.4613 15.293C16.6995 15.1367 15.8792 15.0391 15.0003 15V11.25C16.348 11.25 17.637 11.4453 18.8675 11.8359C20.098 12.2266 21.3089 12.6562 22.5003 13.125C23.6917 13.5938 24.9027 14.0234 26.1331 14.4141C27.3636 14.8047 28.6527 15 30.0003 15ZM60.0003 16.9629C60.0003 20.4199 59.7464 23.9355 59.2386 27.5098C58.7308 31.084 57.9886 34.6289 57.012 38.1445C56.0355 41.6602 54.805 45.0684 53.3206 48.3691C51.8363 51.6699 50.1468 54.7852 48.2523 57.7148C47.7835 58.418 47.1878 58.9746 46.4652 59.3848C45.7425 59.7949 44.9515 60 44.0921 60C43.0179 60 42.0511 59.6973 41.1917 59.0918C40.3323 58.4863 39.7366 57.666 39.4046 56.6309L34.1898 41.0449C33.5062 41.123 32.8128 41.1719 32.1097 41.1914C31.4066 41.2109 30.7034 41.2305 30.0003 41.25C29.2972 41.25 28.5941 41.2402 27.8909 41.2207C27.1878 41.2012 26.4945 41.1426 25.8109 41.0449L20.596 56.6309C20.264 57.6465 19.6683 58.457 18.8089 59.0625C17.9495 59.668 16.9827 59.9805 15.9085 60C15.0491 60 14.2581 59.7949 13.5355 59.3848C12.8128 58.9746 12.2171 58.418 11.7484 57.7148C9.8343 54.8047 8.14485 51.6992 6.68 48.3984C5.21516 45.0977 3.99445 41.6895 3.01789 38.1738C2.04133 34.6582 1.28938 31.1133 0.762033 27.5391C0.234689 23.9648 -0.0192174 20.4395 0.000313895 16.9629C0.000313895 14.7754 0.332345 12.666 0.996408 10.6348C1.66047 8.60352 2.62727 6.79688 3.8968 5.21484C5.16633 3.63281 6.72883 2.37305 8.5843 1.43555C10.4398 0.498047 12.5589 0.0195312 14.9417 0C16.3284 0 17.6273 0.195313 18.8382 0.585938C20.0491 0.976562 21.2601 1.40625 22.471 1.875C23.682 2.34375 24.8831 2.77344 26.0745 3.16406C27.2659 3.55469 28.5745 3.75 30.0003 3.75C31.387 3.75 32.6859 3.55469 33.8968 3.16406C35.1077 2.77344 36.3187 2.34375 37.5296 1.875C38.7406 1.40625 39.9417 0.976562 41.1331 0.585938C42.3245 0.195313 43.6331 0 45.0589 0C47.4417 0 49.5609 0.46875 51.4163 1.40625C53.2718 2.34375 54.8343 3.60352 56.1038 5.18555C57.3734 6.76758 58.3402 8.57422 59.0042 10.6055C59.6683 12.6367 60.0003 14.7559 60.0003 16.9629ZM56.2503 17.0215C56.2503 15.2051 56.0062 13.4961 55.5179 11.8945C55.0296 10.293 54.2972 8.88672 53.3206 7.67578C52.3441 6.46484 51.1136 5.50781 49.6292 4.80469C48.1448 4.10156 46.4359 3.75 44.5023 3.75C43.3695 3.75 42.2855 3.94531 41.2503 4.33594C40.2152 4.72656 39.1214 5.15625 37.9691 5.625C36.8167 6.09375 35.6058 6.52344 34.3363 6.91406C33.0667 7.30469 31.6214 7.5 30.0003 7.5C28.3792 7.5 26.9339 7.30469 25.6644 6.91406C24.3948 6.52344 23.1839 6.09375 22.0316 5.625C20.8792 5.15625 19.7659 4.72656 18.6917 4.33594C17.6175 3.94531 16.4261 3.75 15.1175 3.75C13.223 3.75 11.5628 4.12109 10.137 4.86328C8.71125 5.60547 7.52961 6.5918 6.59211 7.82227C5.65461 9.05273 4.94172 10.459 4.45344 12.041C3.96516 13.623 3.73078 15.2832 3.75031 17.0215C3.75031 18.9355 3.85774 20.9961 4.07258 23.2031C4.28742 25.4102 4.61945 27.6953 5.06867 30.0586C5.51789 32.4219 6.055 34.7754 6.68 37.1191C7.305 39.4629 8.03742 41.7676 8.87727 44.0332C9.71711 46.2988 10.6448 48.4082 11.6605 50.3613C12.6761 52.3145 13.7698 54.0918 14.9417 55.6934C15.2347 56.0645 15.6058 56.25 16.055 56.25C16.2894 56.25 16.5921 55.8984 16.9632 55.1953C17.3343 54.4922 17.7249 53.5742 18.1351 52.4414C18.5452 51.3086 18.9847 50.0781 19.4534 48.75C19.9222 47.4219 20.3421 46.123 20.7132 44.8535C21.0843 43.584 21.4456 42.4316 21.7972 41.3965C22.1488 40.3613 22.3831 39.6094 22.5003 39.1406C22.6566 38.6328 22.9495 38.1934 23.3792 37.8223C23.8089 37.4512 24.3167 37.2559 24.9027 37.2363C25.762 37.2363 26.6116 37.2754 27.4515 37.3535C28.2913 37.4316 29.1409 37.4805 30.0003 37.5C30.8597 37.5 31.7093 37.4609 32.5491 37.3828C33.389 37.3047 34.2386 37.2559 35.098 37.2363C35.6644 37.2363 36.1624 37.4219 36.5921 37.793C37.0218 38.1641 37.3245 38.6133 37.5003 39.1406C37.6566 39.6094 37.8909 40.3613 38.2034 41.3965C38.5159 42.4316 38.8675 43.5742 39.2581 44.8242C39.6488 46.0742 40.0784 47.3828 40.5472 48.75C41.0159 50.1172 41.4456 51.3477 41.8363 52.4414C42.2269 53.5352 42.6273 54.4434 43.0374 55.166C43.4476 55.8887 43.7503 56.25 43.9456 56.25C44.3948 56.25 44.7659 56.0645 45.0589 55.6934C46.2308 54.1309 47.3245 52.3535 48.3402 50.3613C49.3558 48.3691 50.2738 46.2598 51.0941 44.0332C51.9144 41.8066 52.6468 39.5117 53.2913 37.1484C53.9359 34.7852 54.473 32.4316 54.9027 30.0879C55.3323 27.7441 55.6644 25.459 55.8988 23.2324C56.1331 21.0059 56.2503 18.9355 56.2503 17.0215Z" fill="#1A2E46"/>
</svg>
