<svg width="571" height="190" viewBox="0 0 571 190" fill="none" xmlns="http://www.w3.org/2000/svg">
<path d="M76.7004 5.67065L510.226 20.537L371.646 111.086L-109 40.8092L76.7004 5.67065Z" fill="#D9D9D9"/>
<path d="M-109 40.8093L370.769 109.735L415.5 162.443L181.663 114.609L-109 40.8093Z" fill="#939393"/>
<path d="M369.652 122.378C364.941 85.0315 405.889 41.348 461.112 24.8079C516.335 8.26783 545.31 32.7002 552.327 66.4873C552.327 104.329 533.396 143.511 478.173 160.051C422.95 176.592 374.363 159.725 369.652 122.378Z" fill="#BABABA"/>
<ellipse cx="472.618" cy="93.5024" rx="24.176" ry="47.3019" transform="rotate(3 472.618 93.5024)" fill="#DFE0E2"/>
<rect x="475.094" y="46.2654" width="63.7367" height="94.6039" transform="rotate(3 475.094 46.2654)" fill="#DFE0E2"/>
<ellipse cx="534.073" cy="96.7231" rx="24.176" ry="47.3019" transform="rotate(3 534.073 96.7231)" fill="#F8F9FB"/>
</svg>
