<svg width="380" height="380" viewBox="0 0 380 380" fill="none" xmlns="http://www.w3.org/2000/svg">
<rect x="33.9189" y="30.9551" width="317.992" height="154.775" rx="30" fill="black"/>
<path d="M216 99.8509C216 154.997 145.649 186.314 100.031 216.437C57.1603 234.287 0 154.997 0 99.8509C0 44.7048 44.7852 0 100.031 0C155.276 0 216 44.7048 216 99.8509Z" fill="black"/>
<path d="M165 99.8509C165 154.997 235.025 186.314 280.433 216.437C323.104 234.287 380 154.997 380 99.8509C380 44.7048 335.422 0 280.433 0C225.443 0 165 44.7048 165 99.8509Z" fill="black"/>
<path d="M331.509 272.614C315.954 358.749 186.797 458.853 213.665 272.614C240.533 86.3759 213.665 86.3756 213.665 86.3756C213.665 86.3756 226.392 87.4882 290.028 82.1853C353.663 76.8824 347.064 186.479 331.509 272.614Z" fill="black"/>
<path d="M40.7295 274.614C56.6384 360.749 188.731 460.853 161.252 274.614C133.773 88.3759 161.252 88.3756 161.252 88.3756C161.252 88.3756 148.235 89.4882 83.1533 84.1853C18.0715 78.8824 24.8205 188.479 40.7295 274.614Z" fill="black"/>
<path d="M245 211.564C203.182 338.544 245 211.564 187.801 213.753C130.601 211.564 172.598 345.112 130.601 211.564C121.026 181.113 156.21 153 187.801 153C219.391 153 245 179.22 245 211.564Z" fill="black"/>
<rect x="42" y="41" width="300" height="145" rx="30" fill="white"/>
<path d="M206.5 101.5C206.5 150.929 142.5 179 101 206C62 222 10 150.929 10 101.5C10 52.0705 50.7421 12 101 12C151.258 12 206.5 52.0705 206.5 101.5Z" fill="white"/>
<path d="M172 101.5C172 150.929 236 179 277.5 206C316.5 222 368.5 150.929 368.5 101.5C368.5 52.0705 327.758 12 277.5 12C227.242 12 172 52.0705 172 101.5Z" fill="white"/>
<path d="M323.94 266.379C310.505 346.985 198.961 440.663 222.165 266.379C245.37 92.095 222.165 92.0948 222.165 92.0948C222.165 92.0948 233.157 93.1359 288.115 88.1734C343.073 83.2109 337.374 185.773 323.94 266.379Z" fill="white"/>
<path d="M51.0604 269.379C64.4947 349.985 176.039 443.663 152.835 269.379C129.63 95.095 152.835 95.0948 152.835 95.0948C152.835 95.0948 141.843 96.1359 86.885 91.1734C31.9271 86.2109 37.6262 188.773 51.0604 269.379Z" fill="white"/>
<path d="M247 195C203.5 311 247 195 187.5 197C128 195 171.685 317 128 195C118.039 167.182 154.639 141.5 187.5 141.5C220.361 141.5 247 165.453 247 195Z" fill="white"/>
<ellipse cx="124.5" cy="123" rx="27.5" ry="35" fill="#091019"/>
<ellipse cx="124.5" cy="134" rx="12.5" ry="20" fill="#142335"/>
<ellipse cx="142" cy="106" rx="10" ry="15" fill="#FEFEFF"/>
<ellipse cx="259.5" cy="119" rx="27.5" ry="35" fill="#091019"/>
<ellipse cx="259.5" cy="130" rx="12.5" ry="20" fill="#142335"/>
<ellipse cx="239" cy="107" rx="10" ry="15" fill="#FEFEFF"/>
<path d="M196.545 189.142C194.577 191.992 190.376 192.026 188.362 189.207L177.746 174.344C177.582 174.115 177.438 173.873 177.316 173.62L171.591 161.815C169.744 158.007 173.167 153.77 177.278 154.776L191.312 158.209C192.092 158.4 192.908 158.4 193.688 158.209L207.47 154.838C211.623 153.822 215.052 158.148 213.116 161.959L207 174L196.545 189.142Z" fill="#091019"/>
<path fill-rule="evenodd" clip-rule="evenodd" d="M188.362 189.207C190.376 192.026 194.577 191.992 196.545 189.142L206.354 174.936C204.217 173.708 201.698 173 199 173C191.774 173 185.826 178.084 185.079 184.611L188.362 189.207Z" fill="#FF0085"/>
</svg>
